<svg width="21" height="21" viewBox="0 0 21 21" fill="none" xmlns="http://www.w3.org/2000/svg">
<circle cx="10.5" cy="12.25" r="6.5625" stroke="#828282" stroke-width="0.875" stroke-linecap="round"/>
<path d="M12.8156 4.94064C12.4751 5.28115 11.929 5.47976 11.3031 5.58408C10.8721 5.65591 10.438 5.67785 10.0654 5.68455C10.0721 5.31197 10.0941 4.87789 10.1659 4.44692C10.2702 3.82101 10.4688 3.27487 10.8094 2.93436C11.1499 2.59385 11.696 2.39525 12.3219 2.29093C12.7529 2.2191 13.187 2.19715 13.5596 2.19045C13.5529 2.56303 13.5309 2.99711 13.4591 3.42808C13.3548 4.05398 13.1562 4.60013 12.8156 4.94064Z" stroke="#828282" stroke-width="0.875" stroke-linecap="round"/>
<circle cx="7.875" cy="13.125" r="0.875" fill="#828282"/>
<circle cx="12.6875" cy="13.5625" r="1.3125" fill="#828282"/>
<circle cx="10.5" cy="15.75" r="0.875" fill="#828282"/>
</svg>
