<svg width="18" height="18" viewBox="0 0 18 18" fill="none" xmlns="http://www.w3.org/2000/svg">
<g clip-path="url(#clip0_28_97)">
<path d="M6.5 12C5.90666 12 5.32664 11.8241 4.83329 11.4944C4.33994 11.1648 3.95542 10.6962 3.72836 10.1481C3.5013 9.59987 3.44189 8.99667 3.55764 8.41473C3.6734 7.83279 3.95912 7.29824 4.37868 6.87868C4.79824 6.45912 5.33279 6.1734 5.91473 6.05765C6.49667 5.94189 7.09987 6.0013 7.64805 6.22836C8.19623 6.45543 8.66476 6.83994 8.99441 7.33329C9.32405 7.82664 9.5 8.40666 9.5 9C9.5 9.79565 9.18393 10.5587 8.62132 11.1213C8.05871 11.6839 7.29565 12 6.5 12ZM10.25 18H2.75C2.55109 18 2.36032 17.921 2.21967 17.7803C2.07902 17.6397 2 17.4489 2 17.25C2 16.0565 2.47411 14.9119 3.31802 14.068C4.16193 13.2241 5.30653 12.75 6.5 12.75C7.69347 12.75 8.83807 13.2241 9.68198 14.068C10.5259 14.9119 11 16.0565 11 17.25C11 17.4489 10.921 17.6397 10.7803 17.7803C10.6397 17.921 10.4489 18 10.25 18ZM11 6C10.4067 6 9.82664 5.82405 9.33329 5.49441C8.83994 5.16477 8.45542 4.69623 8.22836 4.14805C8.0013 3.59987 7.94189 2.99667 8.05764 2.41473C8.1734 1.83279 8.45912 1.29824 8.87868 0.878681C9.29824 0.459124 9.83279 0.173401 10.4147 0.0576455C10.9967 -0.0581102 11.5999 0.00129984 12.1481 0.228363C12.6962 0.455426 13.1648 0.839943 13.4944 1.33329C13.8241 1.82664 14 2.40666 14 3C14 3.79565 13.6839 4.55871 13.1213 5.12132C12.5587 5.68393 11.7956 6 11 6ZM14.75 12H11.2377C11.1113 11.9996 10.987 11.9673 10.8764 11.906C10.7658 11.8448 10.6725 11.7565 10.6051 11.6495C10.5378 11.5425 10.4986 11.4202 10.4912 11.2939C10.4838 11.1677 10.5084 11.0417 10.5627 10.9275C10.8511 10.3259 11.0005 9.66714 11 9C10.9988 8.58128 10.9392 8.16478 10.823 7.7625C10.7883 7.64203 10.7844 7.51479 10.8117 7.39242C10.8389 7.27005 10.8963 7.15645 10.9787 7.06201C11.0612 6.96756 11.166 6.89529 11.2835 6.85179C11.4011 6.80829 11.5277 6.79495 11.6517 6.813C12.7168 6.97232 13.69 7.50698 14.3956 8.32056C15.1012 9.13414 15.4929 10.1731 15.5 11.25C15.5 11.4489 15.421 11.6397 15.2803 11.7803C15.1397 11.921 14.9489 12 14.75 12Z" fill="#868686"/>
</g>
<defs>
<clipPath id="clip0_28_97">
<rect width="18" height="18" fill="white"/>
</clipPath>
</defs>
</svg>
